name rise30.8019peak61.5557fall86.2505.mot
datacolumns 19
datarows 30
range 21.53991900000000 21.58825200000000
endheader
time	ground_force1_vx	ground_force1_vy	ground_force1_vz	ground_force1_px	ground_force1_py	ground_force1_pz	ground_force2_vx	ground_force2_vy	ground_force2_vz	ground_force2_px	ground_force2_py	ground_force2_pz	ground_torque1_x	ground_torque1_y	ground_torque1_z	ground_torque2_x	ground_torque2_y	ground_torque2_z	
21.53991900000000	-9.64029800000000	695.45562600000005	34.97536700000000	0.11230900000000	0.00000000000000	0.09846300000000	0.00000000000000	0.00000000000000	0.00000000000000	0.00000000000000	0.00000000000000	0.00000000000000	0.00000000000000	11.51622500000000	0.00000000000000	0.00000000000000	0.00000000000000	0.00000000000000	
21.54160000000000	-10.07429200000000	696.14584600000001	34.92158800000000	0.11139300000000	0.00000000000000	0.09845000000000	0.00000000000000	0.00000000000000	0.00000000000000	0.00000000000000	0.00000000000000	0.00000000000000	0.00000000000000	11.54875100000000	0.00000000000000	0.00000000000000	0.00000000000000	0.00000000000000	
21.54325600000000	-10.50970700000000	696.84593700000005	34.86957400000000	0.11047900000000	0.00000000000000	0.09843700000000	0.00000000000000	0.00000000000000	0.00000000000000	0.00000000000000	0.00000000000000	0.00000000000000	0.00000000000000	11.58220800000000	0.00000000000000	0.00000000000000	0.00000000000000	0.00000000000000	
21.54492400000000	-10.94651500000000	697.55564800000002	34.81945100000000	0.10956500000000	0.00000000000000	0.09842400000000	0.00000000000000	0.00000000000000	0.00000000000000	0.00000000000000	0.00000000000000	0.00000000000000	0.00000000000000	11.61661900000000	0.00000000000000	0.00000000000000	0.00000000000000	0.00000000000000	
21.54660000000000	-11.38468900000000	698.27476000000001	34.77134400000000	0.10865300000000	0.00000000000000	0.09841100000000	0.00000000000000	0.00000000000000	0.00000000000000	0.00000000000000	0.00000000000000	0.00000000000000	0.00000000000000	11.65200800000000	0.00000000000000	0.00000000000000	0.00000000000000	0.00000000000000	
21.54825700000000	-11.82420000000000	699.00308900000005	34.72538300000000	0.10774100000000	0.00000000000000	0.09839700000000	0.00000000000000	0.00000000000000	0.00000000000000	0.00000000000000	0.00000000000000	0.00000000000000	0.00000000000000	11.68839600000000	0.00000000000000	0.00000000000000	0.00000000000000	0.00000000000000	
21.54991700000000	-12.26501900000000	699.74047800000005	34.68169400000000	0.10682900000000	0.00000000000000	0.09838400000000	0.00000000000000	0.00000000000000	0.00000000000000	0.00000000000000	0.00000000000000	0.00000000000000	0.00000000000000	11.72580100000000	0.00000000000000	0.00000000000000	0.00000000000000	0.00000000000000	
21.55160000000000	-12.70711400000000	700.48680000000002	34.64040700000000	0.10591900000000	0.00000000000000	0.09837100000000	0.00000000000000	0.00000000000000	0.00000000000000	0.00000000000000	0.00000000000000	0.00000000000000	0.00000000000000	11.76424200000000	0.00000000000000	0.00000000000000	0.00000000000000	0.00000000000000	
21.55325700000000	-13.15045100000000	701.24195499999996	34.60165000000000	0.10500800000000	0.00000000000000	0.09835700000000	0.00000000000000	0.00000000000000	0.00000000000000	0.00000000000000	0.00000000000000	0.00000000000000	0.00000000000000	11.80373400000000	0.00000000000000	0.00000000000000	0.00000000000000	0.00000000000000	
21.55492100000000	-13.59499300000000	702.00586599999997	34.56555100000000	0.10409800000000	0.00000000000000	0.09834400000000	0.00000000000000	0.00000000000000	0.00000000000000	0.00000000000000	0.00000000000000	0.00000000000000	0.00000000000000	11.84429000000000	0.00000000000000	0.00000000000000	0.00000000000000	0.00000000000000	
21.55659700000000	-14.04070400000000	702.77847999999994	34.53223500000000	0.10318800000000	0.00000000000000	0.09833100000000	0.00000000000000	0.00000000000000	0.00000000000000	0.00000000000000	0.00000000000000	0.00000000000000	0.00000000000000	11.88592100000000	0.00000000000000	0.00000000000000	0.00000000000000	0.00000000000000	
21.55825300000000	-14.48753900000000	703.55976399999997	34.50182600000000	0.10227800000000	0.00000000000000	0.09831800000000	0.00000000000000	0.00000000000000	0.00000000000000	0.00000000000000	0.00000000000000	0.00000000000000	0.00000000000000	11.92863500000000	0.00000000000000	0.00000000000000	0.00000000000000	0.00000000000000	
21.55992100000000	-14.93545400000000	704.34970499999997	34.47444900000000	0.10136800000000	0.00000000000000	0.09830600000000	0.00000000000000	0.00000000000000	0.00000000000000	0.00000000000000	0.00000000000000	0.00000000000000	0.00000000000000	11.97243500000000	0.00000000000000	0.00000000000000	0.00000000000000	0.00000000000000	
21.56158400000000	-15.38440000000000	705.14830400000005	34.45022100000000	0.10045700000000	0.00000000000000	0.09829400000000	0.00000000000000	0.00000000000000	0.00000000000000	0.00000000000000	0.00000000000000	0.00000000000000	0.00000000000000	12.01732500000000	0.00000000000000	0.00000000000000	0.00000000000000	0.00000000000000	
21.56325900000000	-15.83432200000000	705.95558100000005	34.42926200000000	0.09954600000000	0.00000000000000	0.09828200000000	0.00000000000000	0.00000000000000	0.00000000000000	0.00000000000000	0.00000000000000	0.00000000000000	0.00000000000000	12.06330000000000	0.00000000000000	0.00000000000000	0.00000000000000	0.00000000000000	
21.56491700000000	-16.28516200000000	706.77156400000001	34.41168400000000	0.09863500000000	0.00000000000000	0.09827000000000	0.00000000000000	0.00000000000000	0.00000000000000	0.00000000000000	0.00000000000000	0.00000000000000	0.00000000000000	12.11035700000000	0.00000000000000	0.00000000000000	0.00000000000000	0.00000000000000	
21.56660300000000	-16.73685700000000	707.59629600000005	34.39759700000000	0.09772300000000	0.00000000000000	0.09825900000000	0.00000000000000	0.00000000000000	0.00000000000000	0.00000000000000	0.00000000000000	0.00000000000000	0.00000000000000	12.15848600000000	0.00000000000000	0.00000000000000	0.00000000000000	0.00000000000000	
21.56825200000000	-17.18933800000000	708.42982700000005	34.38710900000000	0.09681100000000	0.00000000000000	0.09824800000000	0.00000000000000	0.00000000000000	0.00000000000000	0.00000000000000	0.00000000000000	0.00000000000000	0.00000000000000	12.20767400000000	0.00000000000000	0.00000000000000	0.00000000000000	0.00000000000000	
21.56992200000000	-17.64253000000000	709.27221299999997	34.38032100000000	0.09589800000000	0.00000000000000	0.09823800000000	0.00000000000000	0.00000000000000	0.00000000000000	0.00000000000000	0.00000000000000	0.00000000000000	0.00000000000000	12.25790300000000	0.00000000000000	0.00000000000000	0.00000000000000	0.00000000000000	
21.57160100000000	-18.09635200000000	710.12351699999999	34.37733000000000	0.09498400000000	0.00000000000000	0.09822800000000	0.00000000000000	0.00000000000000	0.00000000000000	0.00000000000000	0.00000000000000	0.00000000000000	0.00000000000000	12.30915400000000	0.00000000000000	0.00000000000000	0.00000000000000	0.00000000000000	
21.57325600000000	-18.55071700000000	710.98380499999996	34.37822900000000	0.09407000000000	0.00000000000000	0.09821900000000	0.00000000000000	0.00000000000000	0.00000000000000	0.00000000000000	0.00000000000000	0.00000000000000	0.00000000000000	12.36140000000000	0.00000000000000	0.00000000000000	0.00000000000000	0.00000000000000	
21.57492400000000	-19.00553100000000	711.85314300000005	34.38310600000000	0.09315600000000	0.00000000000000	0.09821100000000	0.00000000000000	0.00000000000000	0.00000000000000	0.00000000000000	0.00000000000000	0.00000000000000	0.00000000000000	12.41461200000000	0.00000000000000	0.00000000000000	0.00000000000000	0.00000000000000	
21.57659800000000	-19.46069200000000	712.73159599999997	34.39204200000000	0.09224100000000	0.00000000000000	0.09820300000000	0.00000000000000	0.00000000000000	0.00000000000000	0.00000000000000	0.00000000000000	0.00000000000000	0.00000000000000	12.46875600000000	0.00000000000000	0.00000000000000	0.00000000000000	0.00000000000000	
21.57825200000000	-19.91609200000000	713.61923000000002	34.40511400000000	0.09132500000000	0.00000000000000	0.09819600000000	0.00000000000000	0.00000000000000	0.00000000000000	0.00000000000000	0.00000000000000	0.00000000000000	0.00000000000000	12.52379300000000	0.00000000000000	0.00000000000000	0.00000000000000	0.00000000000000	
21.57992000000000	-20.37161400000000	714.51610400000004	34.42239200000000	0.09041000000000	0.00000000000000	0.09818900000000	0.00000000000000	0.00000000000000	0.00000000000000	0.00000000000000	0.00000000000000	0.00000000000000	0.00000000000000	12.57968100000000	0.00000000000000	0.00000000000000	0.00000000000000	0.00000000000000	
21.58160000000000	-20.82713400000000	715.42227200000002	34.44394200000000	0.08949400000000	0.00000000000000	0.09818300000000	0.00000000000000	0.00000000000000	0.00000000000000	0.00000000000000	0.00000000000000	0.00000000000000	0.00000000000000	12.63637100000000	0.00000000000000	0.00000000000000	0.00000000000000	0.00000000000000	
21.58325300000000	-21.28251900000000	716.33777999999995	34.46982100000000	0.08857800000000	0.00000000000000	0.09817800000000	0.00000000000000	0.00000000000000	0.00000000000000	0.00000000000000	0.00000000000000	0.00000000000000	0.00000000000000	12.69381100000000	0.00000000000000	0.00000000000000	0.00000000000000	0.00000000000000	
21.58492300000000	-21.73762700000000	717.26266699999996	34.50008200000000	0.08766300000000	0.00000000000000	0.09817300000000	0.00000000000000	0.00000000000000	0.00000000000000	0.00000000000000	0.00000000000000	0.00000000000000	0.00000000000000	12.75194400000000	0.00000000000000	0.00000000000000	0.00000000000000	0.00000000000000	
21.58658800000000	-22.19230900000000	718.19695999999999	34.53477200000000	0.08674800000000	0.00000000000000	0.09816900000000	0.00000000000000	0.00000000000000	0.00000000000000	0.00000000000000	0.00000000000000	0.00000000000000	0.00000000000000	12.81070700000000	0.00000000000000	0.00000000000000	0.00000000000000	0.00000000000000	
21.58825200000000	-22.64640700000000	719.14067399999999	34.57392900000000	0.08583400000000	0.00000000000000	0.09816600000000	0.00000000000000	0.00000000000000	0.00000000000000	0.00000000000000	0.00000000000000	0.00000000000000	0.00000000000000	12.87003400000000	0.00000000000000	0.00000000000000	0.00000000000000	0.00000000000000	
